<?xml version="1.0" encoding="UTF-8" standalone="no"?>
<!-- Created with Inkscape (http://www.inkscape.org/) -->

<svg
   width="210mm"
   height="297mm"
   viewBox="0 0 210 297"
   version="1.1"
   id="svg5"
   inkscape:version="1.1.1 (3bf5ae0d25, 2021-09-20)"
   sodipodi:docname="drawing1.svg"
   xmlns:inkscape="http://www.inkscape.org/namespaces/inkscape"
   xmlns:sodipodi="http://sodipodi.sourceforge.net/DTD/sodipodi-0.dtd"
   xmlns="http://www.w3.org/2000/svg"
   xmlns:svg="http://www.w3.org/2000/svg">
  <sodipodi:namedview
     id="namedview7"
     pagecolor="#ffffff"
     bordercolor="#666666"
     borderopacity="1.0"
     inkscape:pageshadow="2"
     inkscape:pageopacity="0.0"
     inkscape:pagecheckerboard="0"
     inkscape:document-units="mm"
     showgrid="false"
     inkscape:zoom="0.74118967"
     inkscape:cx="397.33419"
     inkscape:cy="561.93443"
     inkscape:window-width="1920"
     inkscape:window-height="1017"
     inkscape:window-x="-8"
     inkscape:window-y="-8"
     inkscape:window-maximized="1"
     inkscape:current-layer="layer1" />
  <defs
     id="defs2">
    <inkscape:perspective
       sodipodi:type="inkscape:persp3d"
       inkscape:vp_x="0 : 148.5 : 1"
       inkscape:vp_y="0 : 1000 : 0"
       inkscape:vp_z="210 : 148.5 : 1"
       inkscape:persp3d-origin="105 : 99 : 1"
       id="perspective209" />
  </defs>
  <g
     inkscape:label="Слой 1"
     inkscape:groupmode="layer"
     id="layer1">
    <rect
       style="fill:#66ff00;stroke-width:0.264583"
       id="rect143"
       width="95.311302"
       height="83.174278"
       x="-34.626202"
       y="123.51202" />
    <path
       sodipodi:type="spiral"
       style="fill:none;fill-rule:evenodd;stroke:#000000"
       id="path168"
       sodipodi:cx="-446.57935"
       sodipodi:cy="570.7041"
       sodipodi:expansion="1"
       sodipodi:revolution="3"
       sodipodi:radius="287.66705"
       sodipodi:argument="-19.369865"
       sodipodi:t0="0"
       d="m -446.57935,570.7041 c 12.51449,-7.17046 15.83985,13.33162 11.91778,20.7999 -10.62856,20.23855 -39.1543,16.21177 -53.51757,3.03565 -25.6925,-23.56899 -18.2986,-64.65285 5.84647,-86.23523 35.43386,-31.67302 90.53392,-20.54861 118.9529,14.72858 37.87803,47.01894 22.87421,116.55559 -23.6107,151.67057 -58.49652,44.18863 -142.64543,25.24017 -184.38824,-32.49282 -50.55615,-69.92238 -27.6297,-168.7739 41.37494,-217.10591 81.31958,-56.95761 194.92649,-30.03409 249.82358,50.25706 63.38086,92.69931 32.44838,221.09519 -59.13918,282.54125 -104.0676,69.81892 -247.27519,34.86959 -315.25892,-68.0213 -76.26748,-115.42802 -37.2958,-273.46341 76.90342,-347.97659 126.78278,-82.72375 299.65783,-39.72576 380.69426,85.78554"
       transform="scale(0.26458333)" />
    <path
       sodipodi:type="spiral"
       style="fill:none;fill-rule:evenodd;stroke:#000000"
       id="path173"
       sodipodi:cx="229.36101"
       sodipodi:cy="781.17657"
       sodipodi:expansion="1"
       sodipodi:revolution="3"
       sodipodi:radius="159.92221"
       sodipodi:argument="-20.902866"
       sodipodi:t0="0"
       d="m 229.36101,781.17657 c -3.72053,-7.10281 7.73887,-8.51947 11.80534,-6.18376 11.01988,6.32964 8.18365,22.09199 0.56218,29.79444 -13.63302,13.77789 -36.30106,8.80732 -47.78354,-5.05939 -16.851,-20.34995 -9.51359,-50.72607 10.68097,-65.77264 26.91617,-20.05472 65.23076,-10.25891 83.76175,16.30255 23.31935,33.42488 11.02521,79.77418 -21.92413,101.75084 -39.90607,26.61669 -94.33956,11.80381 -119.73995,-27.5457 -29.93348,-46.37204 -12.59014,-108.91865 33.16728,-137.72905 52.82877,-33.26276 123.50689,-13.38165 155.71816,38.78886 36.60048,59.27944 14.17674,138.10155 -44.41045,173.70725 C 225.47265,939.17419 138.49773,914.20444 99.502271,849.19795 56.209918,777.02844 83.728139,681.8942 155.15587,639.5125"
       transform="scale(0.26458333)" />
    <path
       sodipodi:type="spiral"
       style="fill:none;fill-rule:evenodd;stroke:#000000"
       id="path175"
       sodipodi:cx="-218.56754"
       sodipodi:cy="294.12173"
       sodipodi:expansion="1"
       sodipodi:revolution="3"
       sodipodi:radius="328.18704"
       sodipodi:argument="-18.069971"
       sodipodi:t0="0"
       d="m -218.56754,294.12173 c 11.70273,11.56745 -9.81897,21.48202 -19.22585,19.45071 -25.49208,-5.50473 -29.77438,-38.09101 -19.67555,-57.90242 18.06444,-35.43797 65.4832,-39.85288 96.57898,-19.90039 45.63431,29.28109 50.22753,93.24606 20.12523,135.25554 -40.12164,55.99203 -121.14038,60.72822 -173.9321,20.35007 -66.433,-50.81178 -71.29406,-149.09732 -20.57491,-212.60866 61.42768,-76.92074 177.08953,-81.897633 251.285219,-20.79975 C 3.4505249,229.96856 8.5383672,363.07056 -62.961926,447.92861 -145.51184,545.90058 -296.09454,551.09655 -391.60027,469.17804 -500.11995,376.09703 -505.42232,208.00625 -413.07455,101.86314 -309.4743,-17.213384 -123.85605,-22.621045 -7.0830848,80.164022 122.55704,194.27493 128.06924,397.43488 14.840878,524.83204"
       transform="scale(0.26458333)" />
    <path
       sodipodi:type="spiral"
       style="fill:none;fill-rule:evenodd;stroke:#000000"
       id="path177"
       sodipodi:cx="-559.91064"
       sodipodi:cy="283.32828"
       sodipodi:expansion="1"
       sodipodi:revolution="3"
       sodipodi:radius="260.25583"
       sodipodi:argument="-18.709126"
       sodipodi:t0="0"
       d="m -559.91064,283.32828 c 12.92035,1.82643 3.91245,18.31748 -3.03566,21.47448 -18.82893,8.55529 -36.96925,-10.15921 -39.91332,-27.54579 -5.26624,-31.10051 22.82596,-56.34164 52.05593,-58.35215 42.89616,-2.9505 76.07788,35.58854 76.79099,76.56607 0.95047,54.6166 -48.37516,95.9565 -101.0762,95.22982 -66.31889,-0.91446 -115.90623,-61.17083 -113.66866,-125.58634 2.71,-78.01582 73.97109,-135.89666 150.09648,-132.10749 89.71113,4.46539 155.91255,86.77414 150.54632,174.60661 -6.19552,101.40607 -99.57906,175.94545 -199.11675,168.98516 C -700.33256,468.68993 -783.22176,364.21333 -774.6555,252.97176 -765.04546,128.17552 -649.46294,36.928041 -526.51847,47.108933 -390.02681,58.411654 -290.41479,185.1095 -302.21681,319.7561"
       transform="scale(0.26458333)" />
    <path
       sodipodi:type="spiral"
       style="fill:none;fill-rule:evenodd;stroke:#000000"
       id="path179"
       sodipodi:cx="113.33131"
       sodipodi:cy="863.47668"
       sodipodi:expansion="1"
       sodipodi:revolution="3"
       sodipodi:radius="742.81647"
       sodipodi:argument="-21.302225"
       sodipodi:t0="0"
       d="m 113.33131,863.47668 c -28.749514,-23.67602 17.73081,-50.43468 39.3511,-47.78357 58.58967,7.18432 74.92003,79.75946 56.21605,126.48579 -33.45702,83.5824 -139.438838,103.2512 -213.6204747,64.6485 C -113.58655,950.17643 -137.04791,806.93436 -77.803003,706.07226 1.1611366,571.63894 182.81477,544.36065 310.08684,624.5588 470.24575,725.47998 501.34388,946.0291 400.03277,1099.5833 277.33145,1285.5581 17.638166,1320.4781 -162.12644,1197.9617 -373.97281,1053.5805 -412.71676,754.59812 -268.93731,548.66783 -102.93825,310.91315 235.42513,268.3433 467.49127,433.42449 731.17956,621.00022 777.57703,998.80674 591.16708,1256.9878 382.04329,1546.6278 -35.250295,1596.8544 -319.53087,1389.096 -635.13619,1158.4449 -689.19305,701.63202 -460.07162,391.2634"
       transform="scale(0.26458333)" />
    <g
       sodipodi:type="inkscape:box3d"
       id="g211"
       style="fill:#66ff00"
       inkscape:perspectiveID="#perspective209"
       inkscape:corner0="0.61616165 : 0.10661539 : 0 : 1"
       inkscape:corner7="-1.8651218 : 8.8229127e-05 : 0.25 : 1">
      <path
         sodipodi:type="inkscape:box3dside"
         id="path217"
         style="fill:#8686bf;fill-rule:evenodd;stroke:none;stroke-linejoin:round"
         inkscape:box3dsidetype="3"
         d="M 64.96875,113.15986 -121.3702,214.52006 V 91.384614 L 64.96875,179.07354 Z"
         points="-121.3702,214.52006 -121.3702,91.384614 64.96875,179.07354 64.96875,113.15986 " />
      <path
         sodipodi:type="inkscape:box3dside"
         id="path213"
         style="fill:#353564;fill-rule:evenodd;stroke:none;stroke-linejoin:round"
         inkscape:box3dsidetype="6"
         d="m 64.96875,113.15986 v 65.91368 l 19.429085,-4.09578 v -57.08357 z"
         points="64.96875,179.07354 84.397835,174.97776 84.397835,117.89419 64.96875,113.15986 " />
      <path
         sodipodi:type="inkscape:box3dside"
         id="path215"
         style="fill:#4d4d9f;fill-rule:evenodd;stroke:none;stroke-linejoin:round"
         inkscape:box3dsidetype="5"
         d="M 64.96875,113.15986 -121.3702,214.52006 -256.04686,241.35217 84.397835,117.89419 Z"
         points="-121.3702,214.52006 -256.04686,241.35217 84.397835,117.89419 64.96875,113.15986 " />
      <path
         sodipodi:type="inkscape:box3dside"
         id="path223"
         style="fill:#e9e9ff;fill-rule:evenodd;stroke:none;stroke-linejoin:round"
         inkscape:box3dsidetype="11"
         d="M 84.397835,117.89419 -256.04686,241.35217 V 68.171573 L 84.397835,174.97776 Z"
         points="-256.04686,241.35217 -256.04686,68.171573 84.397835,174.97776 84.397835,117.89419 " />
      <path
         sodipodi:type="inkscape:box3dside"
         id="path219"
         style="fill:#d7d7ff;fill-rule:evenodd;stroke:none;stroke-linejoin:round"
         inkscape:box3dsidetype="14"
         d="M -121.3702,214.52006 V 91.384614 L -256.04686,68.171573 V 241.35217 Z"
         points="-121.3702,91.384614 -256.04686,68.171573 -256.04686,241.35217 -121.3702,214.52006 " />
      <path
         sodipodi:type="inkscape:box3dside"
         id="path221"
         style="fill:#afafde;fill-rule:evenodd;stroke:none;stroke-linejoin:round"
         inkscape:box3dsidetype="13"
         d="M 64.96875,179.07354 -121.3702,91.384614 -256.04686,68.171573 84.397835,174.97776 Z"
         points="-121.3702,91.384614 -256.04686,68.171573 84.397835,174.97776 64.96875,179.07354 " />
    </g>
  </g>
</svg>
